<?xml version="1.0" encoding="iso-8859-1"?>
<!-- Generator: Adobe Illustrator 19.0.0, SVG Export Plug-In . SVG Version: 6.00 Build 0)  -->
<svg version="1.1" id="Capa_1" xmlns="http://www.w3.org/2000/svg" xmlns:xlink="http://www.w3.org/1999/xlink" x="0px" y="0px"
	 viewBox="0 0 512 512" style="enable-background:new 0 0 512 512;" xml:space="preserve">
<path style="fill:#82CD64;" d="M93.729,58C137.898,21.758,194.406,0,256,0s118.102,21.758,162.271,58H160.597H131.88H93.729z
	 M71.68,146.918v-6.84v-25.531V78.361C27.302,124.397,0,187.007,0,256s27.302,131.603,71.68,177.639V146.918z"/>
<path style="fill:#78BE5A;" d="M71.68,368.55v65.088C27.302,387.603,0,324.993,0,256S27.302,124.397,71.68,78.361v7.088
	C44.721,125.996,29,174.659,29,227S44.721,328.004,71.68,368.55z"/>
<path style="fill:#509137;" d="M466.073,109.686c3.035,4.35-0.035,10.314-5.339,10.314H125H65c-0.69,0-1.348-0.14-1.946-0.393
	C61.857,119.101,60,111.19,60,110.5V91.336V55c0-2.761,2.239-5,5-5h39.008H125h282.992
	C430.445,66.594,450.084,86.77,466.073,109.686z"/>
<path style="fill:#E6FAFF;" d="M512,256c0,141.385-114.615,256-256,256c-78.671,0-149.04-35.498-196-91.336V110h30V75
	c0-2.761,2.239-5,5-5h100c2.761,0,5,2.239,5,5v35h266.291C495.098,151.414,512,201.729,512,256z"/>
<path style="fill:#B4EBFF;" d="M180,92v6c0,1.105-0.895,2-2,2h-66c-1.104,0-2-0.895-2-2v-6c0-1.104,0.896-2,2-2h66
	C179.105,90,180,90.896,180,92z"/>
<path style="fill:#CDF5FF;" d="M450.93,421.929C403.974,477.038,334.075,512,256,512c-78.671,0-149.04-35.498-196-91.336v-71.456
	C103.381,428.908,187.873,483,285,483C348.31,483,406.242,460.006,450.93,421.929z"/>
<path style="fill:#B4EBFF;" d="M390,200H180v210h210V200z"/>
<path style="fill:#46A5CD;" d="M390,330v50H180v-50H390z"/>
<path style="fill:#64A54B;" d="M390,370v40H180v-40h24.008l44.793-61.59c3.13-4.304,9.247-5.064,13.335-1.657l35.834,29.861V370H390
	z"/>
<path style="fill:#78BE5A;" d="M390,314.312V380v30H180v-30h56.727l80.706-110.97c3.723-5.12,11-6.024,15.863-1.971L390,314.312z"/>
<path style="fill:#4BB9E1;" d="M390,380v30H180v-30H390z"/>
<path style="fill:#FFF573;" d="M260,235c0,30.376-24.624,55-55,55s-55-24.624-55-55s24.624-55,55-55S260,204.624,260,235z"/>
<path style="fill:#FFE13C;" d="M230,235c0,13.807-11.193,25-25,25s-25-11.193-25-25s11.193-25,25-25S230,221.193,230,235z"/>
<g>
</g>
<g>
</g>
<g>
</g>
<g>
</g>
<g>
</g>
<g>
</g>
<g>
</g>
<g>
</g>
<g>
</g>
<g>
</g>
<g>
</g>
<g>
</g>
<g>
</g>
<g>
</g>
<g>
</g>
</svg>
